Coordinates
version=1
nRows=21
nColumns=22
inDegrees=yes

Units are S.I. units (second, meters, Newtons, ...)
If the header above contains a line with 'inDegrees', this indicates whether rotational values are in degrees (yes) or radians (no).

endheader
time	pelvis_tilt	pelvis_list	pelvis_rotation	pelvis_tx	pelvis_ty	pelvis_tz	hip_flexion_r	hip_adduction_r	hip_rotation_r	knee_angle_r	ankle_angle_r	subtalar_angle_r	hip_flexion_l	hip_adduction_l	hip_rotation_l	knee_angle_l	ankle_angle_l	subtalar_angle_l	lumbar_extension	lumbar_bending	lumbar_rotation
      3.76000000	     -2.36546846	     -0.64257817	   -104.04859550	      0.14134313	      0.93290313	      1.12582736	     17.64057752	     -2.44819673	      6.28388148	    -36.28906517	      3.95019298	      5.45720466	      9.95337628	     -3.35261529	    -17.12210312	    -19.14449837	      4.78716317	     -4.12936785	     -3.87828269	     -0.81201620	     -0.33180500
      3.77000000	     -2.41654726	     -0.66195534	   -103.75646732	      0.14114032	      0.93331584	      1.12973673	     16.83819447	     -2.74095381	      6.28038198	    -33.48122570	      4.10791628	      5.43705695	      9.57775942	     -3.30669383	    -16.93490441	    -18.91530192	      4.91892761	     -4.02128295	     -3.81353348	     -0.74122955	     -0.47739501
      3.78000000	     -2.44599702	     -0.71604770	   -103.46237905	      0.14084184	      0.93374553	      1.13355013	     15.98043455	     -3.03766829	      6.36469222	    -30.75587516	      4.16217004	      5.39832743	      9.16742621	     -3.23934429	    -16.74017387	    -18.67053172	      5.04835441	     -3.87428000	     -3.77852524	     -0.71123507	     -0.60189662
      3.79000000	     -2.49139468	     -0.72873216	   -103.14163229	      0.14046844	      0.93409676	      1.13729847	     15.15038685	     -3.30169163	      6.42378571	    -28.15975206	      4.11866612	      5.37058915	      8.80816428	     -3.20962760	    -16.50938740	    -18.43350430	      5.15242248	     -3.75834762	     -3.68729351	     -0.65413119	     -0.71247794
      3.80000000	     -2.51362227	     -0.76519001	   -102.82928701	      0.13999427	      0.93443596	      1.14092752	     14.32024340	     -3.56869125	      6.55456130	    -25.75261772	      3.97682426	      5.34109338	      8.43065418	     -3.16200135	    -16.28223839	    -18.19002476	      5.25183948	     -3.62091798	     -3.61557826	     -0.63504460	     -0.78497863
      3.81000000	     -2.51193335	     -0.82116008	   -102.52252189	      0.13941888	      0.93474170	      1.14441815	     13.51169466	     -3.84039469	      6.73626372	    -23.57794559	      3.75964092	      5.33546241	      8.05527616	     -3.10254572	    -16.06713254	    -17.97237678	      5.35821550	     -3.45920731	     -3.56377883	     -0.65393676	     -0.82761657
      3.82000000	     -2.51460696	     -0.82897409	   -102.22868423	      0.13871793	      0.93495773	      1.14780294	     12.79892185	     -4.07267881	      6.91552021	    -21.65953466	      3.39136247	      5.37858017	      7.72027119	     -3.06945072	    -15.85499358	    -17.72591144	      5.44006468	     -3.32305484	     -3.44951479	     -0.65877831	     -0.82580096
      3.83000000	     -2.49943486	     -0.88282118	   -101.94585031	      0.13790591	      0.93517617	      1.15102506	     12.08575986	     -4.30294161	      7.16404845	    -19.99904823	      2.96659504	      5.51147304	      7.36124632	     -3.02488549	    -15.65299278	    -17.51048490	      5.53981503	     -3.14908660	     -3.39311907	     -0.70297371	     -0.79175432
      3.84000000	     -2.48378551	     -0.87432931	   -101.68555202	      0.13692923	      0.93529163	      1.15413815	     11.48705910	     -4.48710385	      7.42178566	    -18.59632119	      2.37667916	      5.70470948	      7.05423178	     -3.00723613	    -15.48205402	    -17.26123359	      5.61745778	     -3.00796664	     -3.25563833	     -0.74090949	     -0.73025347
      3.85000000	     -2.45589795	     -0.93166534	   -101.42904993	      0.13585161	      0.93544530	      1.15709977	     10.84192448	     -4.66830886	      7.75624792	    -17.39760098	      1.75877971	      6.07331665	      6.69936720	     -2.97707716	    -15.31561284	    -17.04026364	      5.72366114	     -2.81191514	     -3.20299735	     -0.81562755	     -0.64913384
      3.86000000	     -2.42764791	     -0.94401514	   -101.19175384	      0.13461386	      0.93552370	      1.15997557	     10.26814059	     -4.80937830	      8.09392438	    -16.38796393	      1.04843322	      6.50874464	      6.37223834	     -2.96802154	    -15.19059662	    -16.77452932	      5.80310199	     -2.63977883	     -3.08807499	     -0.88805707	     -0.56329234
      3.87000000	     -2.37196492	     -0.98267666	   -100.96287132	      0.13325103	      0.93559229	      1.16275884	      9.67707698	     -4.95933358	      8.45984176	    -15.51828483	      0.39838936	      7.09604499	      6.01862418	     -2.93134835	    -15.04603195	    -16.49921802	      5.90506223	     -2.43909070	     -2.99595195	     -1.00991978	     -0.46936583
      3.88000000	     -2.31853997	     -1.01455667	   -100.73236127	      0.13177812	      0.93564156	      1.16548661	      9.08129221	     -5.08820998	      8.78194157	    -14.73535973	     -0.21465441	      7.68897124	      5.66016502	     -2.90991683	    -14.94860133	    -16.19366081	      5.97221172	     -2.25764856	     -2.88898356	     -1.13040132	     -0.40606733
      3.89000000	     -2.23817231	     -1.07442983	   -100.49591806	      0.13021626	      0.93568874	      1.16815830	      8.44970303	     -5.23818994	      9.04304354	    -14.01519308	     -0.64190268	      8.34287891	      5.26411490	     -2.85612044	    -14.81828667	    -15.85890192	      6.05179726	     -2.05190978	     -2.80519995	     -1.29823176	     -0.34026259
      3.90000000	     -2.14691433	     -1.14237523	   -100.25478951	      0.12855806	      0.93572640	      1.17081814	      7.79077834	     -5.38952122	      9.19737563	    -13.31800545	     -0.89509778	      8.93698980	      4.84282924	     -2.79474538	    -14.69712996	    -15.48743149	      6.12261088	     -1.84115376	     -2.71730747	     -1.48551821	     -0.30769728
      3.91000000	     -2.04545617	     -1.22338641	   -100.00692900	      0.12681424	      0.93576316	      1.17345295	      7.10131351	     -5.54211017	      9.23646390	    -12.62504686	     -0.97676438	      9.43475683	      4.39236366	     -2.72494448	    -14.56677348	    -15.07960438	      6.18453674	     -1.61599039	     -2.63596540	     -1.69324634	     -0.29245970
      3.92000000	     -1.94085286	     -1.32406089	    -99.75806391	      0.12498223	      0.93581177	      1.17606055	      6.37154878	     -5.68658170	      9.17149739	    -11.91365695	     -0.91481467	      9.82280617	      3.91062524	     -2.65647691	    -14.44401601	    -14.65101845	      6.24483824	     -1.36156063	     -2.57107231	     -1.91392939	     -0.28246215
      3.93000000	     -1.83646853	     -1.43519664	    -99.51258298	      0.12305982	      0.93587532	      1.17863906	      5.61293817	     -5.81338605	      9.02295267	    -11.17473898	     -0.76722079	     10.06827710	      3.40057322	     -2.59218706	    -14.32084404	    -14.18731852	      6.29465021	     -1.07897216	     -2.51284890	     -2.14090008	     -0.27711095
      3.94000000	     -1.73133067	     -1.54036322	    -99.27493367	      0.12104849	      0.93593460	      1.18116386	      4.85865636	     -5.91842162	      8.80447833	    -10.42488882	     -0.56924290	     10.16888837	      2.87538611	     -2.53094707	    -14.16697990	    -13.67670081	      6.33325925	     -0.78157797	     -2.44469693	     -2.37348775	     -0.26510026
      3.95000000	     -1.64217964	     -1.67490480	    -99.05903064	      0.11894542	      0.93604736	      1.18364728	      4.05563929	     -5.99019850	      8.57845889	     -9.63194138	     -0.36966410	     10.15308615	      2.30524551	     -2.49203531	    -14.07181849	    -13.14816158	      6.36951097	     -0.42564580	     -2.41026054	     -2.59399825	     -0.25259565
      3.96000000	     -1.56285200	     -1.81592036	    -98.86962753	      0.11675765	      0.93618288	      1.18604606	      3.25295540	     -6.03261854	      8.34554383	     -8.82969452	     -0.18545547	     10.02794940	      1.71666332	     -2.46980078	    -14.01219201	    -12.59606837	      6.38936026	     -0.02651265	     -2.38785006	     -2.80780446	     -0.22905208
